<?xml version="1.0" encoding="utf-8"?>
<!-- Generator: Adobe Illustrator 26.0.0, SVG Export Plug-In . SVG Version: 6.00 Build 0)  -->
<svg version="1.1" id="Layer_1" xmlns="http://www.w3.org/2000/svg" xmlns:xlink="http://www.w3.org/1999/xlink" x="0px" y="0px"
	 viewBox="0 0 7 7" style="enable-background:new 0 0 7 7;" xml:space="preserve">
<g>
	<g>
		<path class="search-clear" d="M6.9,6.9L6.9,6.9c-0.3,0.3-0.7,0.3-1,0L0.1,1.1c-0.3-0.3-0.3-0.7,0-1l0,0c0.3-0.3,0.7-0.3,1,0l5.8,5.8
			C7.2,6.2,7.2,6.6,6.9,6.9z"/>
	</g>
	<g>
		<path class="search-clear" d="M0.1,6.9L0.1,6.9c-0.3-0.3-0.3-0.7,0-1l5.8-5.8c0.3-0.3,0.7-0.3,1,0l0,0c0.3,0.3,0.3,0.7,0,1L1.1,6.9
			C0.8,7.2,0.4,7.2,0.1,6.9z"/>
	</g>
</g>
</svg>
