<?xml version="1.0" encoding="utf-8"?>
<!-- Generator: Adobe Illustrator 26.0.0, SVG Export Plug-In . SVG Version: 6.00 Build 0)  -->
<svg version="1.1" id="Layer_1" xmlns="http://www.w3.org/2000/svg" xmlns:xlink="http://www.w3.org/1999/xlink" x="0px" y="0px"
	 viewBox="0 0 45 45" style="enable-background:new 0 0 45 45;" xml:space="preserve">
<g>
	<path class="svg-icon-path" d="M2.5,21.3h4.5l0,0.1l0.9-0.1c0,0,0,0,0,0h7.7c0,0,0,0,0,0c0.5,0,1,0,1.4,0h1.6c1.3,0,2.4-1,2.5-2.3l0,0l0-11.6l0,0V2.5
		c0-1.4-1.1-2.5-2.5-2.5H2.5C1.1,0,0,1.1,0,2.5v16.2C0,20.2,1.1,21.3,2.5,21.3z M1.5,2.5c0-0.6,0.5-1,1-1h16.2c0.6,0,1,0.5,1,1v5
		C13.3,8.2,8.1,13.3,7.2,19.8H2.5c-0.6,0-1-0.5-1-1V2.5z"/>
	<path class="svg-icon-path" d="M42.5,0H26.2c-1.4,0-2.5,1.1-2.5,2.5v4.8l0,0l0,9.3c0,0,0,0,0,0.1v2c0,1.4,1.1,2.5,2.5,2.5h1.4c0.3,0,0.7,0.1,1.1,0
		c0.1,0,0.3,0,0.4,0H37c0,0,0.1,0,0.1,0l0.9,0.1l0-0.1h4.5c1.4,0,2.5-1.1,2.5-2.5V2.5C45,1.1,43.9,0,42.5,0z M43.5,18.8
		c0,0.6-0.5,1-1,1h-4.7c-0.9-6.4-6.1-11.6-12.6-12.3v-5c0-0.6,0.5-1,1-1h16.2c0.6,0,1,0.5,1,1V18.8z"/>
	<path class="svg-icon-path" d="M42.5,23.7h-4.5l0,0l-7.6,0h-1.9c-0.1,0-0.4,0-0.8,0h-1.4c-1.2,0-2.3,0.9-2.5,2.1c0,0.1,0,0.3,0,0.4c0,2,0,10.6,0,10.6
		l0,0.8l0,0v4.8c0,1.4,1.1,2.5,2.5,2.5h16.2c1.4,0,2.5-1.1,2.5-2.5V26.2C45,24.8,43.9,23.7,42.5,23.7z M43.5,42.5c0,0.6-0.5,1-1,1
		H26.2c-0.6,0-1-0.5-1-1v-5c6.5-0.7,11.7-5.9,12.6-12.3h4.7c0.6,0,1,0.5,1,1V42.5z"/>
	<path class="svg-icon-path" d="M21.3,36.8c0,0,0-0.5,0-1.2v-9.4c0,0,0,0,0-0.1c0-1-0.4-1.6-0.7-1.9c-0.8-0.7-1.8-0.6-1.8-0.6l-11.7,0l0,0H2.5
		c-1.4,0-2.5,1.1-2.5,2.5v16.2C0,43.9,1.1,45,2.5,45h16.2c1.4,0,2.5-1.1,2.5-2.5v-4.8l0,0L21.3,36.8z M18.8,43.5H2.5
		c-0.6,0-1-0.5-1-1V26.2c0-0.6,0.5-1,1-1h4.7c0.9,6.4,6.1,11.6,12.6,12.3v5C19.8,43,19.3,43.5,18.8,43.5z"/>
</g>
</svg>
