<?xml version="1.0" encoding="utf-8"?>
<!-- Generator: Adobe Illustrator 26.0.0, SVG Export Plug-In . SVG Version: 6.00 Build 0)  -->
<svg version="1.1" id="Layer_1" xmlns="http://www.w3.org/2000/svg" xmlns:xlink="http://www.w3.org/1999/xlink" x="0px" y="0px"
	 viewBox="0 0 45.4 45.2" style="enable-background:new 0 0 45.4 45.2;" xml:space="preserve">
<g>
	<path class="st0" d="M19,20.7H2.8c-1,0-1.8-0.8-1.8-1.8V2.8c0-1,0.8-1.8,1.8-1.8H19c1,0,1.8,0.8,1.8,1.8v16.1
		C20.7,19.9,19.9,20.7,19,20.7z"/>
	<path class="st0" d="M8.2,20.7C8.7,14,14.1,8.8,20.7,8.4"/>
	<path class="st0" d="M19,24.5H2.8c-1,0-1.8,0.8-1.8,1.8v16.1c0,1,0.8,1.8,1.8,1.8H19c1,0,1.8-0.8,1.8-1.8V26.3
		C20.7,25.3,19.9,24.5,19,24.5z"/>
	<path class="st0" d="M8.2,24.5c0.6,6.6,5.9,11.9,12.6,12.3"/>
	<path class="st0" d="M26.4,20.7h16.1c1,0,1.8-0.8,1.8-1.8V2.8c0-1-0.8-1.8-1.8-1.8H26.4c-1,0-1.8,0.8-1.8,1.8v16.1
		C24.6,19.9,25.4,20.7,26.4,20.7z"/>
	<path class="st0" d="M37.2,20.7C36.6,14,31.3,8.8,24.6,8.4"/>
	<path class="st0" d="M26.4,24.5h16.1c1,0,1.8,0.8,1.8,1.8v16.1c0,1-0.8,1.8-1.8,1.8H26.4c-1,0-1.8-0.8-1.8-1.8V26.3
		C24.6,25.3,25.4,24.5,26.4,24.5z"/>
	<path class="st0" d="M37.2,24.5c-0.6,6.6-5.9,11.9-12.6,12.3"/>
</g>
</svg>
