<?xml version="1.0" encoding="utf-8"?>
<!-- Generator: Adobe Illustrator 26.0.0, SVG Export Plug-In . SVG Version: 6.00 Build 0)  -->
<svg version="1.1" id="Layer_1" xmlns="http://www.w3.org/2000/svg" xmlns:xlink="http://www.w3.org/1999/xlink" x="0px" y="0px"
	 viewBox="0 0 45 45" style="enable-background:new 0 0 45 45;" xml:space="preserve">
<g>
	<g>
		<g>
			<path class="svg-icon-path" d="M18.7,21.1H2.5C1.1,21.1,0,20,0,18.6V2.5C0,1.1,1.1,0,2.5,0h16.2c1.4,0,2.5,1.1,2.5,2.5v16.1
				C21.2,20,20.1,21.1,18.7,21.1z M2.5,1.5c-0.6,0-1,0.5-1,1v16.1c0,0.6,0.5,1,1,1h16.2c0.6,0,1-0.5,1-1V2.5c0-0.6-0.5-1-1-1H2.5z"
				/>
		</g>
	</g>
	<ellipse class="svg-icon-path" cx="10.6" cy="10.6" rx="6.5" ry="6.5"/>
	<g>
		<g>
			<path class="svg-icon-path" d="M42.5,21.1H26.3c-1.4,0-2.5-1.1-2.5-2.5V2.5c0-1.4,1.1-2.5,2.5-2.5h16.2C43.9,0,45,1.1,45,2.5v16.1
				C45,20,43.9,21.1,42.5,21.1z M26.3,1.5c-0.6,0-1,0.5-1,1v16.1c0,0.6,0.5,1,1,1h16.2c0.6,0,1-0.5,1-1V2.5c0-0.6-0.5-1-1-1H26.3z"
				/>
		</g>
	</g>
	<ellipse class="svg-icon-path" cx="34.4" cy="10.6" rx="6.5" ry="6.5"/>
	<g>
		<g>
			<path class="svg-icon-path" d="M18.7,45H2.5C1.1,45,0,43.9,0,42.5V26.4c0-1.4,1.1-2.5,2.5-2.5h16.2c1.4,0,2.5,1.1,2.5,2.5v16.1
				C21.2,43.9,20.1,45,18.7,45z M2.5,25.3c-0.6,0-1,0.5-1,1v16.1c0,0.6,0.5,1,1,1h16.2c0.6,0,1-0.5,1-1V26.4c0-0.6-0.5-1-1-1H2.5z"
				/>
		</g>
	</g>
	<ellipse class="svg-icon-path" cx="10.6" cy="34.4" rx="6.5" ry="6.5"/>
	<g>
		<g>
			<path class="svg-icon-path" d="M42.5,45H26.3c-1.4,0-2.5-1.1-2.5-2.5V26.4c0-1.4,1.1-2.5,2.5-2.5h16.2c1.4,0,2.5,1.1,2.5,2.5v16.1
				C45,43.9,43.9,45,42.5,45z M26.3,25.3c-0.6,0-1,0.5-1,1v16.1c0,0.6,0.5,1,1,1h16.2c0.6,0,1-0.5,1-1V26.4c0-0.6-0.5-1-1-1H26.3z"
				/>
		</g>
	</g>
	<ellipse class="svg-icon-path" cx="34.4" cy="34.4" rx="6.5" ry="6.5"/>
</g>
</svg>
