<?xml version="1.0" encoding="utf-8"?>
<!-- Generator: Adobe Illustrator 26.0.1, SVG Export Plug-In . SVG Version: 6.00 Build 0)  -->
<svg version="1.1" id="Layer_1" xmlns="http://www.w3.org/2000/svg" xmlns:xlink="http://www.w3.org/1999/xlink" x="0px" y="0px"
	 viewBox="0 0 43 43" style="enable-background:new 0 0 43 43;" xml:space="preserve">
<path class="svg-icon-path" d="M40.7,20.3c1.3,0,2.4-1.1,2.4-2.4V2.3c0-1.3-1.1-2.4-2.4-2.4H25.1c-1.3,0-2.4,1.1-2.4,2.4v3.1l-2.3,0V2.3
	c0-1.3-1.1-2.4-2.4-2.4H2.3C1-0.1-0.1,1-0.1,2.3v15.6c0,1.3,1.1,2.4,2.4,2.4h2.5l0,2.3H2.3c-1.3,0-2.4,1.1-2.4,2.4v15.6
	c0,1.3,1.1,2.4,2.4,2.4h15.6c1.3,0,2.4-1.1,2.4-2.4v-3.2l2.3,0v3.2c0,1.3,1.1,2.4,2.4,2.4h15.6c1.3,0,2.4-1.1,2.4-2.4V25.1
	c0-1.3-1.1-2.4-2.4-2.4h-2.4l0-2.3H40.7z M24.1,2.3c0-0.5,0.4-1,1-1h15.6c0.5,0,1,0.4,1,1v15.6c0,0.5-0.4,1-1,1h-2.4l0-5.9
	C38,7.5,34,5.7,31.9,5.5l-7.8,0V2.3z M24.1,15.8h2.4v2.9l7.5-4.3l-7.5-4.3V13h-2.4V8.3h7.6c0.6,0.1,3.5,0.7,3.7,4.7v5.9H25.1
	c-0.5,0-1-0.4-1-1V15.8z M22.7,8.3V13h-2.3V8.3H22.7z M2.3,18.9c-0.5,0-1-0.4-1-1V2.3c0-0.5,0.4-1,1-1h15.6c0.5,0,1,0.4,1,1v3.1
	l-4.8,0c-0.8,0-1.4,0.6-1.4,1.4s0.6,1.4,1.4,1.4h4.8V13h-7.7c-4,0-5.9,3.4-6.4,5.2l0,0.7H2.3z M18.9,15.8v2.1c0,0.5-0.4,1-1,1H7.6
	v-0.2c0.2-0.6,1.1-2.9,3.6-2.9H18.9z M18.9,40.7c0,0.5-0.4,1-1,1H2.3c-0.5,0-1-0.4-1-1V25.1c0-0.5,0.4-1,1-1h2.4l0,7
	c0,4.2,3.1,6,4.7,6.4l9.5,0V40.7z M18.9,34.7h-9c-0.5-0.2-2.3-0.9-2.3-3.5v-7h10.3c0.5,0,1,0.4,1,1V34.7z M40.7,24.1
	c0.5,0,1,0.4,1,1v15.6c0,0.5-0.4,1-1,1H25.1c-0.5,0-1-0.4-1-1v-3.2l7.4,0c4.5,0,6.4-4,6.7-6.2l0-0.1l0-7.2H40.7z M24.1,34.7v-9.6
	c0-0.5,0.4-1,1-1h10.3V31c-0.1,0.6-0.9,3.6-3.9,3.6H24.1z M35.4,22.7H25.1c-1.3,0-2.4,1.1-2.4,2.4v9.6h-2.3v-9.6
	c0-1.3-1.1-2.4-2.4-2.4H7.6v-2.3h10.3c1.3,0,2.4-1.1,2.4-2.4v-2.1h2.3v2.1c0,1.3,1.1,2.4,2.4,2.4h10.3V22.7z"/>
</svg>
