<?xml version="1.0" encoding="utf-8"?>
<!-- Generator: Adobe Illustrator 26.0.0, SVG Export Plug-In . SVG Version: 6.00 Build 0)  -->
<svg version="1.1" id="Layer_1" xmlns="http://www.w3.org/2000/svg" xmlns:xlink="http://www.w3.org/1999/xlink" x="0px" y="0px"
	 viewBox="0 0 45 45" style="enable-background:new 0 0 45 45;" xml:space="preserve">
<g>
	<path class="svg-icon-path" d="M21.2,7.3L21.2,7.3l0-4.8C21.2,1.1,20,0,18.7,0H2.5C1.1,0,0,1.1,0,2.5v16.1c0,1.4,1.1,2.5,2.5,2.5H7l0,0.1l0.9-0.1
		c0,0,0,0,0,0h7.7c0,0,0,0,0,0c0.5,0,1,0,1.4,0h1.6c1.3,0,2.3-1,2.5-2.2l0,0L21.2,7.3z M1.5,18.6V2.5c0-0.6,0.5-1,1-1h16.1
		c0.6,0,1,0.5,1,1v4.9C13.3,8.2,8.1,13.3,7.2,19.7H2.5C1.9,19.7,1.5,19.2,1.5,18.6z"/>
	<path class="svg-icon-path" d="M21.2,37.4l0-0.8c0,0,0-0.5,0-1.3v-9.2c0,0,0,0,0-0.1c0-1-0.4-1.6-0.7-1.9c-0.8-0.7-1.8-0.6-1.8-0.6L7,23.6l0,0H2.5
		c-1.4,0-2.5,1.1-2.5,2.5v16.1c0,1.4,1.1,2.5,2.5,2.5h16.1c1.4,0,2.5-1.1,2.5-2.5L21.2,37.4L21.2,37.4z M18.7,43.2H2.5
		c-0.6,0-1-0.5-1-1V26.1c0-0.6,0.5-1,1-1h4.7c0.9,6.4,6.1,11.5,12.5,12.2v4.9C19.7,42.8,19.2,43.2,18.7,43.2z"/>
	<g>
		<g>
			<path class="svg-icon-path" d="M42.5,21.1H26.3c-1.4,0-2.5-1.1-2.5-2.5V2.5C23.8,1.1,25,0,26.3,0h16.1C43.9,0,45,1.1,45,2.5v16.1
				C45,20,43.9,21.1,42.5,21.1z M26.3,1.5c-0.6,0-1,0.5-1,1v16.1c0,0.6,0.5,1,1,1h16.1c0.6,0,1-0.5,1-1V2.5c0-0.6-0.5-1-1-1H26.3z"
				/>
		</g>
	</g>
	<ellipse class="svg-icon-path" cx="34.4" cy="10.6" rx="6.5" ry="6.5"/>
	<g>
		<g>
			<path class="svg-icon-path" d="M42.5,45H26.3c-1.4,0-2.5-1.1-2.5-2.5V26.4c0-1.4,1.1-2.5,2.5-2.5h16.1c1.4,0,2.5,1.1,2.5,2.5v16.1
				C45,43.9,43.9,45,42.5,45z M26.3,25.3c-0.6,0-1,0.5-1,1v16.1c0,0.6,0.5,1,1,1h16.1c0.6,0,1-0.5,1-1V26.4c0-0.6-0.5-1-1-1H26.3z"
				/>
		</g>
	</g>
	<ellipse class="svg-icon-path" cx="34.4" cy="34.4" rx="6.5" ry="6.5"/>
</g>
</svg>
